# xmcd
#
# Track frame offsets:
#	150
#	17570
#	31569
#	48268
#	63920
#	79061
#	92389
#	112859
#	125074
#	138743
#	157040
#	174918
#	189074
#	203988
#	219315
#	235697
#	255640
#	270202
#	288377
#
# Disc length: 4054 seconds
#
# Revision: 1
# Processed by: cddbd v1.5.1PL0 Copyright (c) Steve Scherf et al.
# Submitted via: audiograbber 1.83.01
#
DISCID=ef0fd413
DTITLE=Various Artist - RC55
DYEAR=1999
DGENRE=Country
TTITLE0=Dixie Chicks - Ready To Run
TTITLE1=Tim McGraw - Something Like That
TTITLE2=Mary Chapin Carpenter - Almost Home
TTITLE3=Shania Twain - You've Got A Way
TTITLE4=Steve Wariner - I'm Already Taken
TTITLE5=Martina McBride - I Love You
TTITLE6=Alan Jackson - Little Man
TTITLE7=Lee Ann Womack - (Now You See Me) now You Don't
TTITLE8=George Strait - What do You Say To That
TTITLE9=Mark Wills - She's In Love
TTITLE10=Vince Gill ft. Patty Loveless - My Kind Of Woman My Kind Of Man
TTITLE11=Andy Griggs - I'll Go Crazy
TTITLE12=Jessica Andrews - You Go First (Do you Wanna Kiss)
TTITLE13=Montgomery Gentry - Lonely And Gone
TTITLE14=Chad Brock - Lightning Does The Work
TTITLE15=Trisha Yearwood - I'll Still Love You More
TTITLE16=Aaron Tippin - Her
TTITLE17=Doug Stone - Make Up In Love
TTITLE18=Geroge Jones - Choices
EXTD=
EXTT0=
EXTT1=
EXTT2=
EXTT3=
EXTT4=
EXTT5=
EXTT6=
EXTT7=
EXTT8=
EXTT9=
EXTT10=
EXTT11=
EXTT12=
EXTT13=
EXTT14=
EXTT15=
EXTT16=
EXTT17=
EXTT18=
PLAYORDER=
